<?xml version="1.0" encoding="utf-8"?>
<!-- Generator: Adobe Illustrator 26.0.3, SVG Export Plug-In . SVG Version: 6.00 Build 0)  -->
<svg version="1.0" id="katman_1" xmlns="http://www.w3.org/2000/svg" xmlns:xlink="http://www.w3.org/1999/xlink" x="0px" y="0px"
	 viewBox="0 0 600 450" style="enable-background:new 0 0 600 450;" xml:space="preserve">
<style type="text/css">
	.st0{fill-rule:evenodd;clip-rule:evenodd;fill:#010202;}
</style>
<path class="st0" d="M431.5,313.8c-1.7-1.2-3.5-2.3-5.3-3.2c-0.9-9.5-8.6-16.9-18.1-17.5c-9.8,0-18.8,5.4-23.4,14
	c-3.6-2.8-8.7-2.1-11.5,1.5c-0.2,0.2-0.3,0.4-0.5,0.7c-8.3-5.1-16.9-9.6-25.9-13.4c4.3-10.4,5.5-21.9,3.6-33
	c5.7,0.6,11,1.1,12.5,1.2c3.4,0.2,6.8-0.5,9.8-2.1c6.2-3.5,12.1-7.4,17.8-11.7c3.6,2.1,8.2,0.8,10.3-2.8c0.9-1.6,1.2-3.4,0.9-5.2
	c13.5-3,24.3-13.1,28.1-26.4c2.4-7.8,0.5-13.2-2.5-15c1.6-5.4-1.5-11.1-6.9-12.7c-0.9-0.3-1.8-0.4-2.7-0.4c0.1-5.2-4-9.5-9.2-9.7
	c-1,0-2,0.1-3,0.4c-0.5-3.9-4.5-6.3-9.6-5.4c-7.2,2-13.1,7.1-16.1,13.9c-3.5-2-8-1.4-10.9,1.5c-5,7.6-5.8,17.2-2.3,25.6
	c-3.9-1.4-9.5,4-5.9,10.8l-3.4,2.1c-1.7,1.1-1.7,1.1-5.5,0.8c-7.4-1.3-14.7-3.4-21.7-6.3c8.6-1.2,16-6.6,19.9-14.4
	c4.3-0.7,7.3-4.8,6.6-9.1c-0.1-0.8-0.4-1.5-0.7-2.2c5.9-2,9.3-8.3,7.6-14.3c8-0.6,15.2-4.9,19.5-11.7c9.7-18-3.8-36.3-20-32
	c-6.9,1.9-13.3,5.5-18.5,10.5c-2.6-6.7-5.6-13.3-7.9-18.7c8.8-5.5,31.7-33.5,26.8-38.9c-4.8-5.2-27.4,1.8-37.7,7.9
	c-1.9-8.6-6-16.5-12-23c-8.5-8.5-22.4-10.3-38.1,0c-21.8,17-36,42.1-39.3,69.6c-29.7,12.5-21.6,42.8,10.3,48c1.5,4.4,4.3,8.3,8.1,11
	c-7.6,2.1-4.6,10.5,2.9,10.5c-9.3,0.7-18.4,2.2-27.5,4.3c-2.2-4.3-7.5-5.9-11.8-3.7c-1.7,0.9-3,2.2-3.8,3.9
	c-8.2-4.1-17.7-5.1-26.6-2.8c-11.4,1.8-19.4,12.4-17.9,23.9c-4.5,5.1-4,12.8,1.1,17.3c0.1,0,0.1,0.1,0.2,0.1
	c-2.6,4.6-1.1,10.4,3.5,13.1c1.2,0.7,2.5,1.1,3.9,1.2c-1.8,9,10.3,15.6,26.1,5.2c10.3,9.6,23.6,0.5,25.5-16.2
	c4.5,2.4,9.9-0.1,10.5-6.8c9.6-2.2,19.3-3.6,29.1-4.2c0,4.8-0.9,9.6-2.6,14.1c-8.7,11.5-10.4,26.8-4.4,39.8
	c-0.6,0.8-1.3,1.4-2.2,1.8c-2.4-1.3-4.8-2.4-7.2-3.6c0-3.7-3-6.7-6.7-6.7c-1,0-2,0.2-3,0.7c-3.8-7.1-12.3-10.3-19.8-7.5
	c-2-0.9-4.2-1.5-6.4-1.7c-2.1-0.4-4.2,0.5-5.4,2.3c-3.4,5.5-6.1,11.4-8,17.6c-0.5,1.2-0.1,2.5,0.8,3.3c0.7,0.6,1.5,1.1,2.4,1.6
	c-9.8,11.6-16.7,25.3-20.2,40c-0.8,3.5-0.4,5.7,1.2,6.8c1.8,1.2,3.7,2.2,5.7,3c1.9,9.6,10.6,16.4,20.4,15.9
	c11.1-1.7,20.3-9.5,23.7-20.2c2.7,0,5.2-1.2,6.8-3.3c10.3,5.8,22.1,8.5,33.9,7.6c12.8-4.4,23.6-13.1,30.7-24.7
	c17.8,6,34.8,14.2,50.5,24.5c0.5,5.1,5,8.9,10.1,8.5c3.5,8.4,14.2,13.3,19.8,9.9c2.2,0.8,4.4,1.5,6.7,2.1c3.2,0.8,3.7,0.4,5.2-1.4
	c3.6-4.5,6.5-9.4,8.8-14.6c1.1-2.5,1.2-4.1,0.1-5.4c-0.7-0.7-1.5-1.3-2.3-1.9c11.7-10.6,20.2-24.2,24.8-39.3
	C433.8,316.2,433.3,315.1,431.5,313.8"/>
</svg>
